<mxfile host="65bd71144e">
    <diagram id="bTXWF_rBy6kejlXhag64" name="v1">
        <mxGraphModel dx="820" dy="575" grid="1" gridSize="10" guides="1" tooltips="1" connect="1" arrows="1" fold="1" page="1" pageScale="1" pageWidth="850" pageHeight="1100" math="0" shadow="0">
            <root>
                <mxCell id="0"/>
                <mxCell id="1" parent="0"/>
                <mxCell id="kVljPw0Do1ozaaUadegc-1" value="" style="shape=folder;fontStyle=1;spacingTop=10;tabWidth=70;tabHeight=20;tabPosition=left;html=1;strokeWidth=1;" parent="1" vertex="1">
                    <mxGeometry x="30" y="40" width="940" height="630" as="geometry"/>
                </mxCell>
                <mxCell id="wUpNHY5g5nKD9p_Z8K-e-5" value="event&lt;br&gt;(pressing button)" style="text;html=1;strokeColor=none;fillColor=none;align=center;verticalAlign=middle;whiteSpace=wrap;rounded=0;" parent="1" vertex="1">
                    <mxGeometry x="140" y="110" width="100" height="30" as="geometry"/>
                </mxCell>
                <mxCell id="wUpNHY5g5nKD9p_Z8K-e-20" value="&lt;span style=&quot;color: rgba(0 , 0 , 0 , 0) ; font-family: monospace ; font-size: 0px&quot;&gt;%3CmxGraphModel%3E%3Croot%3E%3CmxCell%20id%3D%220%22%2F%3E%3CmxCell%20id%3D%221%22%20parent%3D%220%22%2F%3E%3CmxCell%20id%3D%222%22%20value%3D%22%22%20style%3D%22endArrow%3DdiamondThin%3BendFill%3D0%3BendSize%3D24%3Bhtml%3D1%3BentryX%3D0%3BentryY%3D0.5%3BentryDx%3D0%3BentryDy%3D0%3BstrokeWidth%3D1%3BedgeStyle%3DorthogonalEdgeStyle%3Brounded%3D0%3BstrokeColor%3D%23666666%3BfillColor%3D%23f5f5f5%3BexitX%3D1%3BexitY%3D0.5%3BexitDx%3D0%3BexitDy%3D0%3B%22%20edge%3D%221%22%20parent%3D%221%22%3E%3CmxGeometry%20width%3D%22160%22%20relative%3D%221%22%20as%3D%22geometry%22%3E%3CmxPoint%20x%3D%22250%22%20y%3D%22142.5%22%20as%3D%22sourcePoint%22%2F%3E%3CmxPoint%20x%3D%22300%22%20y%3D%22142.5%22%20as%3D%22targetPoint%22%2F%3E%3C%2FmxGeometry%3E%3C%2FmxCell%3E%3CmxCell%20id%3D%223%22%20value%3D%22%26lt%3Bspan%20style%3D%26quot%3Bcolor%3A%20rgba(0%20%2C%200%20%2C%200%20%2C%200)%20%3B%20font-family%3A%20monospace%20%3B%20font-size%3A%200px%20%3B%20background-color%3A%20rgb(248%20%2C%20249%20%2C%20250)%26quot%3B%26gt%3B%253CmxGraphModel%253E%253Croot%253E%253CmxCell%2520id%253D%25220%2522%252F%253E%253CmxCell%2520id%253D%25221%2522%2520parent%253D%25220%2522%252F%253E%253CmxCell%2520id%253D%25222%2522%2520value%253D%2522%2522%2520style%253D%2522endArrow%253DdiamondThin%253BendFill%253D0%253BendSize%253D24%253Bhtml%253D1%253BentryX%253D0%253BentryY%253D0.5%253BentryDx%253D0%253BentryDy%253D0%253BstrokeWidth%253D1%253BedgeStyle%253DorthogonalEdgeStyle%253Brounded%253D0%253BstrokeColor%253D%2523666666%253BfillColor%253D%2523f5f5f5%253BexitX%253D1%253BexitY%253D0.5%253BexitDx%253D0%253BexitDy%253D0%253B%2522%2520edge%253D%25221%2522%2520parent%253D%25221%2522%253E%253CmxGeometry%2520width%253D%2522160%2522%2520relative%253D%25221%2522%2520as%253D%2522geometry%2522%253E%253CmxPoint%2520x%253D%2522250%2522%2520y%253D%2522142.5%2522%2520as%253D%2522sourcePoint%2522%252F%253E%253CmxPoint%2520x%253D%2522300%2522%2520y%253D%2522142.5%2522%2520as%253D%2522targetPoint%2522%252F%253E%253C%252FmxGeometry%253E%253C%252FmxCell%253E%253C%252Froot%253E%253C%252FmxGraphModel%253E%26lt%3B%2Fspan%26gt%3B%22%20style%3D%22edgeLabel%3Bhtml%3D1%3Balign%3Dcenter%3BverticalAlign%3Dmiddle%3Bresizable%3D0%3Bpoints%3D%5B%5D%3B%22%20vertex%3D%221%22%20connectable%3D%220%22%20parent%3D%222%22%3E%3CmxGeometry%20x%3D%220.28%22%20y%3D%221%22%20relative%3D%221%22%20as%3D%22geometry%22%3E%3CmxPoint%20as%3D%22offset%22%2F%3E%3C%2FmxGeometry%3E%3C%2FmxCell%3E%3C%2Froot%3E%3C%2FmxGraphModel%3E&lt;/span&gt;" style="text;html=1;align=center;verticalAlign=middle;resizable=0;points=[];autosize=1;strokeColor=none;fillColor=none;" parent="1" vertex="1">
                    <mxGeometry x="255" y="250" width="20" height="20" as="geometry"/>
                </mxCell>
                <mxCell id="kVljPw0Do1ozaaUadegc-2" value="app" style="text;html=1;strokeColor=none;fillColor=none;align=center;verticalAlign=middle;whiteSpace=wrap;rounded=0;shadow=0;glass=0;labelBackgroundColor=none;sketch=0;" parent="1" vertex="1">
                    <mxGeometry x="50" y="40" width="40" height="20" as="geometry"/>
                </mxCell>
                <mxCell id="kVljPw0Do1ozaaUadegc-9" value="&lt;span&gt;Gate&lt;/span&gt;" style="whiteSpace=wrap;html=1;fontColor=#333333;strokeColor=#666666;strokeWidth=1;fillColor=#f5f5f5;align=left;spacing=0;" parent="1" vertex="1">
                    <mxGeometry x="375" y="195" width="130" height="105" as="geometry"/>
                </mxCell>
                <mxCell id="kVljPw0Do1ozaaUadegc-10" value="&lt;span&gt;Timer&lt;/span&gt;" style="whiteSpace=wrap;html=1;fontColor=#333333;strokeColor=#666666;strokeWidth=1;fillColor=#f5f5f5;align=center;spacing=0;" parent="1" vertex="1">
                    <mxGeometry x="375" y="80" width="130" height="45" as="geometry"/>
                </mxCell>
                <mxCell id="kVljPw0Do1ozaaUadegc-11" value="" style="endArrow=none;endFill=0;endSize=24;html=1;entryX=0.5;entryY=1;entryDx=0;entryDy=0;strokeWidth=1;edgeStyle=orthogonalEdgeStyle;rounded=0;strokeColor=#666666;fillColor=#f5f5f5;exitX=0.5;exitY=0;exitDx=0;exitDy=0;" parent="1" source="kVljPw0Do1ozaaUadegc-9" target="kVljPw0Do1ozaaUadegc-10" edge="1">
                    <mxGeometry width="160" relative="1" as="geometry">
                        <mxPoint x="315" y="216.25" as="sourcePoint"/>
                        <mxPoint x="345" y="255" as="targetPoint"/>
                        <Array as="points">
                            <mxPoint x="440" y="180"/>
                            <mxPoint x="440" y="180"/>
                        </Array>
                    </mxGeometry>
                </mxCell>
                <mxCell id="2" value="GateSensor" style="whiteSpace=wrap;html=1;fontColor=#333333;strokeColor=#666666;strokeWidth=1;fillColor=#f5f5f5;align=center;spacing=0;" vertex="1" parent="1">
                    <mxGeometry x="375" y="350" width="130" height="100" as="geometry"/>
                </mxCell>
                <mxCell id="4" value="&lt;font color=&quot;#4a4a4a&quot;&gt;GateSensorObserver&lt;/font&gt;" style="whiteSpace=wrap;html=1;fontColor=#333333;strokeColor=#666666;strokeWidth=1;fillColor=#f5f5f5;align=center;spacing=0;" vertex="1" parent="1">
                    <mxGeometry x="375" y="505" width="130" height="55" as="geometry"/>
                </mxCell>
                <mxCell id="5" value="ClosedGate" style="whiteSpace=wrap;html=1;fontColor=#333333;strokeColor=#666666;strokeWidth=1;fillColor=#f5f5f5;align=center;spacing=0;" vertex="1" parent="1">
                    <mxGeometry x="570" y="300" width="130" height="45" as="geometry"/>
                </mxCell>
                <mxCell id="6" value="OpeningGate" style="whiteSpace=wrap;html=1;fontColor=#333333;strokeColor=#666666;strokeWidth=1;fillColor=#f5f5f5;align=center;spacing=0;" vertex="1" parent="1">
                    <mxGeometry x="740" y="300" width="130" height="45" as="geometry"/>
                </mxCell>
                <mxCell id="7" value="OpenedGate" style="whiteSpace=wrap;html=1;fontColor=#333333;strokeColor=#666666;strokeWidth=1;fillColor=#f5f5f5;align=center;spacing=0;" vertex="1" parent="1">
                    <mxGeometry x="740" y="360" width="130" height="45" as="geometry"/>
                </mxCell>
                <mxCell id="9" value="ClosingGate" style="whiteSpace=wrap;html=1;fontColor=#333333;strokeColor=#666666;strokeWidth=1;fillColor=#f5f5f5;align=center;spacing=0;" vertex="1" parent="1">
                    <mxGeometry x="570" y="360" width="130" height="45" as="geometry"/>
                </mxCell>
                <mxCell id="12" value="PausedGate" style="whiteSpace=wrap;html=1;fontColor=#333333;strokeColor=#666666;strokeWidth=1;fillColor=#f5f5f5;align=center;spacing=0;" vertex="1" parent="1">
                    <mxGeometry x="570" y="420" width="130" height="45" as="geometry"/>
                </mxCell>
                <mxCell id="13" value="" style="endArrow=none;html=1;entryX=0.5;entryY=1;entryDx=0;entryDy=0;exitX=0.5;exitY=0;exitDx=0;exitDy=0;strokeColor=#666666;" edge="1" parent="1" source="2" target="kVljPw0Do1ozaaUadegc-9">
                    <mxGeometry width="50" height="50" relative="1" as="geometry">
                        <mxPoint x="440" y="310" as="sourcePoint"/>
                        <mxPoint x="480" y="250" as="targetPoint"/>
                    </mxGeometry>
                </mxCell>
                <mxCell id="18" value="&lt;span&gt;GateState&lt;/span&gt;" style="whiteSpace=wrap;html=1;fontColor=#333333;strokeColor=#666666;strokeWidth=1;fillColor=#f5f5f5;align=center;spacing=0;" vertex="1" parent="1">
                    <mxGeometry x="570" y="225" width="130" height="45" as="geometry"/>
                </mxCell>
                <mxCell id="20" value="&lt;h1 style=&quot;font-size: 13px&quot;&gt;&lt;font color=&quot;#4a4a4a&quot;&gt;+toggle()&lt;br&gt;+emergency()&lt;br&gt;&lt;br&gt;&lt;/font&gt;&lt;/h1&gt;" style="text;html=1;strokeColor=none;fillColor=none;spacing=5;spacingTop=-20;whiteSpace=wrap;overflow=hidden;rounded=0;strokeWidth=0;" vertex="1" parent="1">
                    <mxGeometry x="375" y="254" width="150" height="65" as="geometry"/>
                </mxCell>
                <mxCell id="26" value="&lt;h1 style=&quot;font-size: 13px&quot;&gt;&lt;font color=&quot;#4a4a4a&quot;&gt;+carArrived()&lt;br&gt;+attach()&lt;br&gt;&lt;br&gt;&lt;/font&gt;&lt;/h1&gt;" style="text;html=1;strokeColor=none;fillColor=none;spacing=5;spacingTop=-20;whiteSpace=wrap;overflow=hidden;rounded=0;strokeWidth=0;" vertex="1" parent="1">
                    <mxGeometry x="375" y="420" width="150" height="65" as="geometry"/>
                </mxCell>
                <mxCell id="28" value="" style="endArrow=none;html=1;fontSize=13;fontColor=#878C91;strokeColor=#666666;entryX=0.5;entryY=1;entryDx=0;entryDy=0;exitX=0.5;exitY=0;exitDx=0;exitDy=0;" edge="1" parent="1" source="4" target="2">
                    <mxGeometry width="50" height="50" relative="1" as="geometry">
                        <mxPoint x="430" y="510" as="sourcePoint"/>
                        <mxPoint x="480" y="460" as="targetPoint"/>
                    </mxGeometry>
                </mxCell>
                <mxCell id="29" value="" style="endArrow=none;html=1;fontSize=13;fontColor=#878C91;strokeColor=#666666;entryX=0;entryY=0.5;entryDx=0;entryDy=0;exitX=1;exitY=0.5;exitDx=0;exitDy=0;" edge="1" parent="1" source="kVljPw0Do1ozaaUadegc-9" target="18">
                    <mxGeometry width="50" height="50" relative="1" as="geometry">
                        <mxPoint x="510" y="270" as="sourcePoint"/>
                        <mxPoint x="560" y="220" as="targetPoint"/>
                    </mxGeometry>
                </mxCell>
                <mxCell id="30" value="&lt;h1 style=&quot;font-size: 13px&quot;&gt;&lt;font color=&quot;#4a4a4a&quot;&gt;+update()&lt;/font&gt;&lt;/h1&gt;" style="text;html=1;strokeColor=none;fillColor=none;spacing=5;spacingTop=-20;whiteSpace=wrap;overflow=hidden;rounded=0;strokeWidth=0;" vertex="1" parent="1">
                    <mxGeometry x="375" y="540" width="125" height="20" as="geometry"/>
                </mxCell>
            </root>
        </mxGraphModel>
    </diagram>
</mxfile>